<?xml version="1.0" encoding="UTF-8" standalone="no"?>
<svg
   xmlns:dc="http://purl.org/dc/elements/1.1/"
   xmlns:cc="http://creativecommons.org/ns#"
   xmlns:rdf="http://www.w3.org/1999/02/22-rdf-syntax-ns#"
   xmlns:svg="http://www.w3.org/2000/svg"
   xmlns="http://www.w3.org/2000/svg"
   xmlns:sodipodi="http://sodipodi.sourceforge.net/DTD/sodipodi-0.dtd"
   xmlns:inkscape="http://www.inkscape.org/namespaces/inkscape"
   version="1.1"
   width="1000.0023"
   height="268.33591"
   id="svg825"
   viewBox="0 0 1000.0023 268.33591"
   sodipodi:docname="Bukit_Asam_(2019).svg"
   inkscape:version="1.0.2 (e86c870879, 2021-01-15, custom)">
  <metadata
     id="metadata831">
    <rdf:RDF>
      <cc:Work
         rdf:about="">
        <dc:format>image/svg+xml</dc:format>
        <dc:type
           rdf:resource="http://purl.org/dc/dcmitype/StillImage" />
        <dc:title></dc:title>
      </cc:Work>
    </rdf:RDF>
  </metadata>
  <defs
     id="defs829" />
  <sodipodi:namedview
     pagecolor="#ffffff"
     bordercolor="#666666"
     borderopacity="1"
     objecttolerance="10"
     gridtolerance="10"
     guidetolerance="10"
     inkscape:pageopacity="0"
     inkscape:pageshadow="2"
     inkscape:window-width="1366"
     inkscape:window-height="715"
     id="namedview827"
     showgrid="false"
     inkscape:zoom="0.45566486"
     inkscape:cx="479.28558"
     inkscape:cy="117.74968"
     inkscape:window-x="-8"
     inkscape:window-y="-8"
     inkscape:window-maximized="1"
     inkscape:current-layer="svg825" />
  <g
     id="g1346"
     transform="matrix(0.63199743,0,0,0.63199743,-1.8041189e-6,5.1815711e-6)">
    <g
       id="g1358">
      <path
         style="fill:#8cc63f;fill-opacity:1;stroke-width:0.587633"
         d="m 1101.1432,401.22538 c 0.1327,-0.5656 2.2231,-10.68023 4.6453,-22.47697 2.4221,-11.79674 4.5416,-22.04359 4.7098,-22.77079 0.2876,-1.24317 0.6037,-1.32218 5.2896,-1.32218 h 4.9836 v 2.90505 2.90504 l 1.9098,-1.79225 c 6.387,-5.99378 16.8962,-7.00285 22.9916,-2.2076 2.3699,1.86439 3.8681,5.49484 3.8605,9.3548 -0.01,1.77759 -1.5332,10.63616 -3.3994,19.68571 l -3.3931,16.45373 -5.696,0.16819 c -3.1328,0.0925 -5.696,0.0855 -5.696,-0.0155 0,-0.10104 1.4544,-7.15334 3.232,-15.67179 3.7485,-17.96317 3.9444,-20.56233 1.6837,-22.34059 -3.8144,-3.00038 -11.7735,-0.4539 -15.4972,4.95818 -2.0274,2.94671 -3.3365,7.64079 -6.5128,23.35247 l -1.9898,9.84286 h -5.6814 c -5.111,0 -5.6571,-0.10325 -5.4402,-1.02836 z"
         id="path1267" />
      <path
         style="fill:#221f1f;fill-opacity:1;stroke-width:0.587633"
         d="m 1366.6714,401.76694 c -1.3063,-0.61003 -2.8821,-1.87391 -3.5018,-2.80861 -2.0361,-3.0711 -1.4186,-7.74656 5.1526,-39.01419 l 6.1132,-29.08784 6.0194,-0.16798 c 5.5467,-0.15478 5.9948,-0.0855 5.7047,0.88145 -0.6603,2.20079 -12.118,57.98504 -12.118,58.999 0,1.5281 2.1486,2.46466 4.8294,2.10509 1.7548,-0.23537 2.2383,-0.12437 2.0133,0.46211 -0.1629,0.42453 -0.6061,2.34706 -0.9848,4.27228 -0.9965,5.06481 -1.0431,5.10418 -6.2738,5.29808 -3.5223,0.13058 -5.1271,-0.0862 -6.9542,-0.93939 z"
         id="path1265" />
      <path
         id="path1263"
         style="fill:#221f1f;fill-opacity:1;stroke-width:0.587633"
         d="m 1329.9763,391.67114 c 2.4831,-1.76813 4.9928,-5.32201 6.3684,-9.01801 1.541,-4.14034 3.8667,-15.32681 3.4255,-16.47649 -0.6432,-1.67625 -4.0566,-3.28981 -6.9643,-3.29213 -5.5947,-0.005 -10.3137,5.90009 -12.4366,15.56101 -1.2541,5.70777 -1.238,9.47617 0.052,12.04738 1.8422,3.67323 5.4302,4.11564 9.5553,1.17824 z m -14.5134,10.36504 c -7.0205,-3.35495 -9.3979,-12.35504 -6.7073,-25.39169 2.0992,-10.17125 7.3854,-18.28806 14.1618,-21.7452 2.6882,-1.37148 3.9734,-1.64939 7.6392,-1.65194 4.8453,-0.004 7.1956,0.87125 10.3331,3.84533 l 1.8125,1.71803 0.9315,-2.37145 0.9316,-2.37145 h 5.0817 c 4.5657,0 5.0504,0.10444 4.773,1.02836 -0.1698,0.5656 -1.9311,8.90469 -3.9139,18.53131 -4.0327,19.57941 -4.0412,19.22413 0.4587,19.22413 1.8617,0 2.5553,0.21562 2.3629,0.73454 -0.1498,0.404 -0.6194,2.50033 -1.0436,4.65851 -0.8685,4.41803 -1.0864,4.57522 -6.3602,4.58869 -4.4476,0.0113 -7.0391,-1.37631 -8.4261,-4.51195 l -1.127,-2.54789 -1.4078,1.67307 c -2.4262,2.88332 -8.1652,5.53152 -12.5817,5.80559 -3.2247,0.20012 -4.38,-0.003 -6.9184,-1.21599 z" />
      <path
         id="path1259"
         style="fill:#221f1f;fill-opacity:1;stroke-width:0.587633"
         d="m 1280.9758,391.91683 c 4.6848,-2.6664 7.8673,-9.6453 8.3052,-18.21214 0.3159,-6.17848 -0.4721,-8.43484 -3.4906,-9.99578 -2.7542,-1.42427 -7.4643,-0.87919 -10.1582,1.17558 -4.1349,3.15381 -7.0622,9.52217 -7.7427,16.84411 -0.6437,6.92628 0.6316,9.94861 4.8077,11.39413 2.7955,0.96762 5.0323,0.6418 8.2786,-1.2059 z m -12.2767,10.8728 c -5.7409,-1.35254 -10.3298,-5.45383 -11.8573,-10.59729 -1.2581,-4.23639 -1.1618,-11.70182 0.2206,-17.10698 3.8031,-14.87019 14.66,-23.30497 28.2286,-21.93098 7.1322,0.72222 11.5081,3.4499 14.1528,8.82193 1.6969,3.44686 1.8463,4.22401 1.8337,9.53844 -0.01,3.18222 -0.4349,7.60216 -0.9497,9.82208 -1.8178,7.8381 -6.9936,15.33128 -13.0357,18.87217 -4.849,2.8417 -12.8005,3.94533 -18.593,2.58063 z" />
      <path
         style="fill:#221f1f;fill-opacity:1;stroke-width:0.587633"
         d="m 1224.249,402.53703 c -7.5384,-2.12155 -11.7828,-7.67772 -12.268,-16.05964 -0.7769,-13.42095 5.7508,-26.05048 15.961,-30.88069 6.3501,-3.00408 16.6537,-3.33293 22.8826,-0.73031 l 1.9959,0.83393 -0.9004,4.32553 c -0.4952,2.37905 -0.9485,4.39809 -1.0074,4.48677 -0.059,0.0887 -1.6546,-0.24187 -3.546,-0.73455 -4.6589,-1.21348 -9.9693,-1.12954 -12.8881,0.20371 -2.8123,1.28458 -7.0785,5.76834 -8.3528,8.77887 -3.8273,9.04149 -3.2322,16.98235 1.4764,19.70085 2.8356,1.63714 8.7931,1.44835 14.4739,-0.45866 2.4605,-0.82597 4.5655,-1.50177 4.6778,-1.50177 0.2491,0 -1.7587,9.95718 -2.0667,10.24926 -0.1204,0.1142 -1.6732,0.64706 -3.4508,1.18414 -4.6646,1.40932 -13.0623,1.7072 -16.9874,0.60256 z"
         id="path1255" />
      <path
         id="path1253"
         style="fill:#8cc63f;fill-opacity:1;stroke-width:0.587633"
         d="m 1179.0027,392.22446 c 4.9697,-3.53869 7.3625,-8.363 9.443,-19.03836 l 1.3146,-6.74519 -1.3347,-1.42077 c -0.7341,-0.78143 -2.4833,-1.74234 -3.887,-2.13536 -7.4424,-2.08374 -13.917,5.68453 -15.5143,18.6144 -1.0722,8.67865 1.0685,13.06016 5.9958,12.27224 1.2839,-0.20529 3.0761,-0.90143 3.9826,-1.54696 z m -12.3329,10.34964 c -3.2901,-1.06247 -6.8127,-4.49377 -8.1379,-7.92719 -1.567,-4.05953 -1.3967,-14.18133 0.3413,-20.27927 3.7523,-13.16573 11.3256,-20.8674 20.5336,-20.88172 4.289,-0.007 6.7134,0.8677 9.7162,3.50419 1.5258,1.33969 2.2335,1.6622 2.4179,1.10187 0.3108,-0.94476 5.623,-26.58839 5.623,-27.14425 0,-0.21189 2.5121,-0.38525 5.5825,-0.38525 4.0749,0 5.5822,0.19837 5.5813,0.73454 0,0.404 -2.6444,13.42742 -5.8751,28.94094 -3.2307,15.51352 -5.8746,29.03343 -5.8752,30.04426 0,2.37815 1.2248,3.34829 3.8455,3.04234 1.8724,-0.2186 2.0696,-0.11426 1.8201,0.96312 -0.1539,0.66455 -0.5815,2.71165 -0.9503,4.5491 l -0.6706,3.34083 -3.2578,0.40704 c -1.9741,0.24665 -4.1435,0.1417 -5.5054,-0.26637 -2.4044,-0.72035 -5.2724,-3.60365 -5.2724,-5.30039 0,-1.88161 -0.6615,-1.74186 -3.0471,0.64371 -4.4736,4.47364 -11.7064,6.57985 -16.8696,4.9125 z" />
      <path
         id="path1249"
         style="fill:#8cc63f;fill-opacity:1;stroke-width:0.587633"
         d="m 1074.6423,392.9128 c 5.9243,-2.74282 9.8335,-11.00355 9.9236,-20.96985 0.058,-6.42855 -2.4743,-9.31248 -8.1774,-9.31248 -5.6584,0 -10.1413,4.45456 -12.6723,12.59214 -1.5261,4.90698 -1.7112,12.46776 -0.3683,15.04339 1.842,3.53264 6.8475,4.70566 11.2944,2.6468 z m -9.7361,9.92344 c -9.6815,-1.63924 -14.5958,-8.80022 -13.896,-20.24872 0.7745,-12.67099 6.8198,-22.86155 16.1586,-27.23863 3.0593,-1.43393 3.9913,-1.5749 10.4117,-1.5749 6.7352,0 7.1946,0.0791 10.2383,1.7629 7.2709,4.02235 9.8641,12.62864 7.3732,24.47002 -2.5565,12.15306 -10.6105,20.83874 -21.1257,22.78259 -3.8308,0.70816 -5.212,0.71521 -9.1601,0.0467 z" />
      <path
         id="path1245"
         style="fill:#8cc63f;fill-opacity:1;stroke-width:0.587633"
         d="m 976.10522,373.06428 c 6.58102,-1.6512 9.77522,-6.39164 6.50816,-9.65869 -1.76502,-1.76501 -7.6886,-1.39292 -10.75199,0.6754 -2.38185,1.6081 -5.96383,6.47526 -6.54036,8.88688 l -0.37408,1.56489 3.72359,-0.26868 c 2.04797,-0.14777 5.3936,-0.68768 7.43468,-1.1998 z m -9.29359,29.52476 c -4.71112,-1.08082 -6.15952,-1.79335 -9.03728,-4.44596 -3.41556,-3.14839 -5.17951,-7.30433 -5.52551,-13.01871 -0.74365,-12.28024 5.86875,-24.70209 15.65478,-29.40847 3.30791,-1.5909 4.73445,-1.91519 9.35789,-2.12732 6.31282,-0.28964 9.69401,0.46231 13.06761,2.90613 6.2835,4.55176 6.4129,14.44114 0.25956,19.84375 -4.51085,3.96054 -11.19242,6.04987 -21.93377,6.8587 l -5.50212,0.41431 0.30745,2.29193 c 0.58069,4.32942 3.6455,7.15545 8.55923,7.89231 3.05404,0.45798 10.4316,-0.48209 14.42592,-1.83818 1.54424,-0.52429 2.91225,-0.84876 3.03995,-0.72103 0.12775,0.12773 -0.20691,2.25595 -0.74365,4.72939 l -0.97594,4.49715 -2.69089,0.885 c -3.06633,1.00846 -9.92219,2.07589 -12.97454,2.02008 -1.13119,-0.0207 -3.5111,-0.37127 -5.28869,-0.77908 z" />
      <path
         id="path1241"
         style="fill:#8cc63f;fill-opacity:1;stroke-width:0.587633"
         d="m 923.03295,392.93055 c 6.22151,-2.8335 10.851,-12.00867 10.86205,-21.52756 0.006,-5.01286 -1.24802,-7.48106 -4.31435,-8.49305 -4.27609,-1.41123 -10.47897,2.14757 -12.78126,7.33301 -1.41261,3.18171 -3.59367,13.41883 -3.59608,16.8789 -0.006,5.90271 4.18618,8.37891 9.82964,5.8087 z m -9.27433,9.85701 c -4.80302,-1.13099 -8.50023,-3.88791 -10.54325,-7.86195 -2.41976,-4.70678 -2.14909,-7.14442 4.08011,-36.74437 l 5.7504,-27.32494 5.77462,-0.16875 c 5.31432,-0.1553 5.74917,-0.085 5.45588,0.88145 -0.17529,0.5776 -1.38323,6.07446 -2.68431,12.21523 -1.30108,6.14077 -2.61785,12.03581 -2.92606,13.10009 l -0.56037,1.93506 2.75747,-1.99473 c 3.54308,-2.56301 5.92857,-3.34447 10.20942,-3.34447 5.98,0 10.43643,2.89724 12.87364,8.36949 1.1279,2.53239 1.37676,4.0958 1.38047,8.67187 0.006,6.84645 -0.85419,10.57885 -3.92005,17.01812 -4.03956,8.48452 -10.50805,13.69659 -18.92232,15.2469 -3.99255,0.73563 -5.60508,0.73581 -8.72565,10e-4 z" />
      <path
         style="fill:#8cc63f;fill-opacity:1;stroke-width:0.587633"
         d="m 989.3446,423.55544 c 0.15513,-0.56559 0.58158,-2.35053 0.94762,-3.96652 l 0.66549,-2.93817 3.93996,-0.0326 c 4.38974,-0.0364 6.36333,-0.84553 9.47143,-3.88336 2.3677,-2.31401 7.6903,-10.26098 7.6903,-11.48192 0,-0.46756 -2.2477,-10.82838 -4.9949,-23.02406 -2.7472,-12.19568 -4.9949,-22.48882 -4.9949,-22.87365 0,-0.49186 1.6514,-0.69969 5.5599,-0.69969 h 5.5598 l 0.5664,2.20363 c 0.3115,1.21199 1.8062,8.41784 3.3215,16.013 1.5153,7.59516 2.8711,14.19766 3.0129,14.67223 0.1417,0.47457 2.3338,-3.0953 4.8712,-7.93305 2.5375,-4.83774 6.5785,-12.36577 8.98,-16.72894 l 4.3665,-7.93305 6.2677,-0.16679 c 3.4472,-0.0917 6.2677,-0.0197 6.2677,0.16002 0,0.72157 -29.705,52.5452 -32.4886,56.68002 -3.5865,5.32735 -8.1553,9.86403 -11.7338,11.65117 -2.3,1.14872 -3.5432,1.31012 -10.09074,1.31012 -6.82771,0 -7.44337,-0.0881 -7.18546,-1.02836 z"
         id="path1235" />
    </g>
    <g
       id="g1233"
       transform="matrix(0.58763327,0,0,0.58763327,66.249441,202.65343)">
      <g
         id="Layer1001"
         transform="matrix(1.4818071,0,0,1.4818071,-178.9125,-752.30008)"
         style="fill:#00ff00">
        <g
           id="Layer1002"
           style="fill:#00ff00">
          <path
             d="m 45.769386,398.76061 c 0,26.26909 5.851623,49.51175 16.749195,66.78977 6.666341,10.56944 18.980625,25.44044 31.26901,30.57287 39.032949,16.30253 74.929969,-25.14494 112.491669,-25.14494 39.11047,0 78.60857,48.98286 124.35804,16.95575 15.34543,-10.74245 29.19461,-33.82147 36.35751,-50.93681 9.81207,-23.44437 9.93281,-53.61663 -2.0295,-75.85493 -1.57775,-2.93301 -2.84062,-5.4431 -4.33934,-8.17219 -2.50571,-4.56248 -7.28776,-10.3459 -10.68577,-14.45754 -1.45875,-1.76472 -1.6427,-1.893 -3.2227,-3.41853 -1.56675,-1.51297 -1.68658,-2.04582 -3.08109,-3.55184 -6.27286,-6.77494 -20.99615,-16.07195 -30.12196,-20.6892 -25.9011,-13.10561 -61.66483,-14.33419 -86.66017,3.43582 -3.70045,2.63094 -7.69203,5.38881 -10.28591,9.03019 22.34678,1.74801 39.45997,16.0336 48.92202,32.03291 2.11376,3.57405 3.72871,7.0916 5.47612,10.97236 2.55925,5.68364 5.36945,19.04911 4.84628,26.29469 -1.67024,23.13824 -9.26814,37.672 -28.85949,51.46918 -43.80887,30.85205 -103.0946,-3.04951 -103.0946,-48.55153 0,-23.5912 20.20188,-58.59808 33.04982,-78.54818 2.45638,-3.81401 25.27897,-39.35818 25.94097,-42.0294 H 93.756659 c -2.627894,0.18547 -2.916765,0.84787 -4.498107,2.83757 -10.495659,13.20559 -8.871567,10.66671 -18.079072,25.56225 -14.737474,23.8416 -25.410094,66.58275 -25.410094,95.40173 z"
             style="fill:#ffc40d;fill-opacity:1;fill-rule:evenodd;stroke-width:0.996354"
             id="path816" />
          <path
             d="M 44.657009,594.69967 H 371.40461 V 468.5493 h -0.60219 c -8.06404,14.94806 -18.43331,29.70318 -29.50932,38.13193 -50.52275,38.44911 -94.14173,-20.35571 -137.33297,-20.35571 -41.48059,0 -74.37464,48.40894 -117.480039,28.83754 -13.570383,-6.16176 -33.918273,-22.66498 -41.279798,-35.35394 -0.182465,-0.31447 -0.363389,-0.6306 -0.543284,-0.94829 z"
             style="fill:#ce4147;fill-opacity:1;fill-rule:evenodd;stroke-width:1.03291"
             id="path818"
             sodipodi:nodetypes="cccccscccc" />
        </g>
      </g>
      <g
         aria-label="BukitAsam"
         id="text911"
         style="font-size:373.278px;line-height:1.25;font-family:Lato;-inkscape-font-specification:Lato;fill:#354485;fill-opacity:1;stroke-width:9.33191">
        <path
           d="m 595.60062,85.064766 q 13.438,0 22.0234,-3.172864 8.77203,-3.359502 13.99792,-8.772033 5.2259,-5.412531 7.27893,-12.318174 2.05302,-7.092283 2.05302,-14.557843 0,-8.212116 -2.4263,-14.744482 -2.42631,-6.532365 -7.83884,-11.011701 -5.41253,-4.665975 -14.18457,-7.092282 -8.58539,-2.426307 -21.27684,-2.426307 H 547.63439 V 85.064766 Z M 547.63439,-100.26777 v 73.162492 h 36.76789 q 11.75825,0 20.90356,-1.86639 9.14532,-2.053029 15.3044,-6.345726 6.15909,-4.292697 9.33195,-11.198341 3.35951,-7.092282 3.35951,-16.984149 0,-10.078507 -2.79959,-17.170789 -2.61295,-7.092282 -8.21212,-11.38498 -5.59917,-4.292697 -14.18456,-6.159087 -8.58539,-2.05303 -20.34365,-2.05303 z m 40.12739,-42.55369 q 27.24929,0 46.47311,5.22589 19.41046,5.03925 31.54199,14.55784 12.31818,9.33195 17.91735,22.76996 5.59917,13.43801 5.59917,30.048881 0,9.331951 -2.79959,17.917345 -2.61294,8.585394 -8.39875,16.237594 -5.59917,7.46556 -14.55785,13.624647 -8.95867,6.159088 -21.27684,10.451785 27.62257,6.532365 40.87394,21.2768466 13.25137,14.7444814 13.25137,38.2609964 0,17.170789 -6.719,31.91527 -6.53237,14.744482 -19.22382,25.569545 -12.69145,10.82506 -31.35536,16.98415 -18.47726,5.97245 -42.55369,5.97245 H 491.64269 v -270.8132 z"
           style="font-style:normal;font-variant:normal;font-weight:800;font-stretch:normal;font-family:Lato;-inkscape-font-specification:'Lato Ultra-Bold';fill:#354485;fill-opacity:1;stroke-width:9.33191"
           id="path943" />
        <path
           d="M 895.95535,-64.433079 V 127.99174 h -31.72863 q -9.89187,0 -12.69145,-8.95867 l -3.3595,-13.43801 q -5.78581,5.59917 -11.9449,10.26514 -6.15909,4.66598 -13.25137,8.02548 -6.90564,3.3595 -15.11776,5.22589 -8.02548,1.86639 -17.54407,1.86639 -15.67767,0 -27.99585,-5.41253 -12.13153,-5.41253 -20.34365,-15.11776 -8.21212,-9.70523 -12.50481,-23.143236 -4.2927,-13.438009 -4.2927,-29.488963 v -122.24855 h 51.51237 v 122.24855 q 0,16.050954 7.27892,25.009627 7.46556,8.772033 22.0234,8.772033 10.82506,0 20.34365,-4.665975 9.51859,-4.852614 18.10399,-13.064731 V -64.433079 Z"
           style="font-style:normal;font-variant:normal;font-weight:800;font-stretch:normal;font-family:Lato;-inkscape-font-specification:'Lato Ultra-Bold';fill:#354485;fill-opacity:1;stroke-width:9.33191"
           id="path945" />
        <path
           d="M 988.0213,-150.28702 V 7.6095775 h 8.5854 q 4.8526,0 7.6522,-1.3064731 2.7996,-1.493112 5.5992,-5.2258922 l 42.5537,-56.7382582 q 3.1728,-4.292697 7.0922,-6.532365 4.1061,-2.239668 10.2652,-2.239668 h 47.033 l -55.2451,70.1762664 q -6.5324,8.7720336 -15.1178,13.8112866 4.2927,2.986224 7.4656,6.905643 3.1728,3.919419 6.1591,8.772034 l 59.5378,92.759589 h -46.2865 q -5.9724,0 -10.2651,-1.86639 -4.2927,-2.05303 -7.0923,-7.09228 l -43.3003,-70.736189 q -2.6129,-4.479336 -5.4125,-5.785809 -2.7996,-1.306473 -8.3987,-1.306473 h -10.8251 v 86.787141 h -51.51237 v -278.27876 z"
           style="font-style:normal;font-variant:normal;font-weight:800;font-stretch:normal;font-family:Lato;-inkscape-font-specification:'Lato Ultra-Bold';fill:#354485;fill-opacity:1;stroke-width:9.33191"
           id="path947" />
        <path
           d="M 1193.1375,-64.433079 V 127.99174 h -51.5124 V -64.433079 Z m 6.1591,-54.685231 q 0,6.53237 -2.613,12.13154 -2.6129,5.59917 -7.0923,9.891864 -4.2926,4.292697 -10.2651,6.719005 -5.7858,2.426307 -12.5048,2.426307 -6.3457,0 -12.1315,-2.426307 -5.5992,-2.426308 -9.8919,-6.719005 -4.2927,-4.292694 -6.9057,-9.891864 -2.4263,-5.59917 -2.4263,-12.13154 0,-6.53236 2.4263,-12.13153 2.613,-5.78581 6.9057,-10.07851 4.2927,-4.2927 9.8919,-6.719 5.7858,-2.42631 12.1315,-2.42631 6.719,0 12.5048,2.42631 5.9725,2.4263 10.2651,6.719 4.4794,4.2927 7.0923,10.07851 2.613,5.59917 2.613,12.13153 z"
           style="font-style:normal;font-variant:normal;font-weight:800;font-stretch:normal;font-family:Lato;-inkscape-font-specification:'Lato Ultra-Bold';fill:#354485;fill-opacity:1;stroke-width:9.33191"
           id="path949" />
        <path
           d="m 1301.6271,130.97796 q -13.0647,0 -23.1432,-3.73278 -10.0785,-3.91942 -16.9842,-11.0117 -6.9056,-7.09228 -10.4517,-17.170789 -3.5462,-10.078506 -3.5462,-22.769959 V -27.478556 h -18.104 q -4.106,0 -7.0922,-2.612946 -2.7996,-2.612946 -2.7996,-7.838838 v -20.157013 l 30.7954,-5.59917 10.4518,-49.832617 q 2.053,-8.39875 11.385,-8.39875 h 26.876 v 58.604645 h 49.646 v 35.834689 h -49.646 V 72.93323 q 0,8.025477 3.7328,12.691453 3.9194,4.665975 11.0117,4.665975 3.7327,0 6.3457,-0.746556 2.6129,-0.933195 4.4793,-1.86639 1.8664,-1.119834 3.3595,-1.86639 1.6798,-0.933195 3.3595,-0.933195 2.2397,0 3.7328,1.119834 1.4931,0.933195 2.9862,3.359502 l 15.4911,24.636347 q -10.6384,8.39876 -24.0765,12.69145 -13.438,4.2927 -27.8092,4.2927 z"
           style="font-style:normal;font-variant:normal;font-weight:800;font-stretch:normal;font-family:Lato;-inkscape-font-specification:'Lato Ultra-Bold';fill:#354485;fill-opacity:1;stroke-width:9.33191"
           id="path951" />
        <path
           d="m 1543.006,28.699785 -41.9938,-108.810541 q -1.8664,-4.852614 -3.9194,-11.198341 -2.053,-6.532365 -3.9194,-13.811283 -3.9194,15.117757 -8.0255,25.196263 l -41.9938,108.623902 z m 75.4022,99.291955 h -27.9959 q -4.8526,0 -7.8388,-2.42631 -2.9862,-2.42631 -4.4794,-6.15909 l -25.0096,-64.577094 h -120.0089 l -25.0096,64.577094 q -1.1198,3.35951 -4.2927,5.97245 -3.1729,2.61295 -7.8388,2.61295 h -27.9959 l 106.9442,-267.4537 h 36.5812 z"
           style="fill:#354485;fill-opacity:1;stroke-width:9.33191"
           id="path953" />
        <path
           d="m 1755.9605,-29.904863 q -2.2397,4.106058 -6.9057,4.106058 -2.7996,0 -6.3457,-2.053029 -3.5462,-2.053029 -8.772,-4.479336 -5.0393,-2.612946 -12.1316,-4.665975 -7.0923,-2.239668 -16.7975,-2.239668 -8.3987,0 -15.1178,2.239668 -6.719,2.053029 -11.5716,5.785809 -4.6659,3.73278 -7.2789,8.772033 -2.4263,4.852614 -2.4263,10.638424 0,7.278921 4.1061,12.13153519 4.2927,4.85261421 11.1983,8.39875531 6.9056,3.5461415 15.6777,6.3457265 8.772,2.612946 17.9173,5.785809 9.332,2.986224 18.104,6.719004 8.772,3.73278 15.6777,9.331951 6.9056,5.59917 11.0117,13.811286 4.2927,8.025478 4.2927,19.410457 0,13.064731 -4.666,24.263071 -4.666,11.011704 -13.8113,19.223814 -9.1453,8.02548 -22.3967,12.69146 -13.2513,4.66597 -30.6088,4.66597 -19.7837,0 -35.8346,-6.34572 -16.051,-6.53237 -27.2493,-16.61088 l 7.8388,-12.691449 q 1.4931,-2.426307 3.5461,-3.73278 2.0531,-1.306473 5.2259,-1.306473 3.3595,0 7.0923,2.612946 3.7328,2.612946 8.9587,5.785809 5.4125,3.172867 13.0647,5.785807 7.6522,2.61295 19.0372,2.61295 9.7052,0 16.9841,-2.42631 7.279,-2.61294 12.1316,-6.905642 4.8526,-4.292697 7.0923,-9.891867 2.4263,-5.59917 2.4263,-11.944897 0,-7.838838 -4.2927,-12.878091 -4.1061,-5.225892 -11.0117,-8.772034 -6.9057,-3.73278 -15.8643,-6.345726 -8.7721,-2.799585 -18.104,-5.785809 -9.1453,-2.986224 -18.104,-6.719004 -8.772,-3.91942 -15.6777,-9.705229 -6.9056,-5.785809 -11.1983,-14.184564 -4.1061,-8.5853947 -4.1061,-20.7169302 0,-10.8250628 4.4793,-20.7169298 4.4794,-10.078506 13.0648,-17.544067 8.5854,-7.652199 21.0902,-12.131535 12.5048,-4.479336 28.5558,-4.479336 18.6639,0 33.4083,5.972448 14.9312,5.785809 25.7562,16.050954 z"
           style="fill:#354485;fill-opacity:1;stroke-width:9.33191"
           id="path955" />
        <path
           d="m 1907.937,42.88435 q -22.9566,0.746556 -39.1941,3.73278 -16.051,2.799585 -26.3161,7.46556 -10.0786,4.665976 -14.7445,11.011702 -4.4794,6.345726 -4.4794,14.184564 0,7.465561 2.4263,12.878092 2.4263,5.412531 6.5324,8.958672 4.2927,3.3595 9.8919,5.03925 5.7858,1.49312 12.3181,1.49312 8.7721,0 16.051,-1.67976 7.2789,-1.86639 13.6247,-5.22589 6.5323,-3.3595 12.3181,-8.025475 5.9725,-4.665975 11.5716,-10.638423 z m -107.3174,-77.268549 q 15.6777,-15.11776 33.7817,-22.58332 18.104,-7.46556 40.1274,-7.46556 15.8643,0 28.1825,5.225892 12.3181,5.225892 20.7169,14.557842 8.3987,9.331951 12.6914,22.58332 4.2927,13.2513698 4.2927,29.1156855 V 127.99174 h -14.7445 q -4.8526,0 -7.4655,-1.49311 -2.613,-1.67976 -4.1061,-6.34573 l -3.7327,-17.91735 q -7.4656,6.90565 -14.5579,12.31818 -7.0923,5.22589 -14.9311,8.95867 -7.8389,3.54614 -16.7975,5.41253 -8.7721,2.05303 -19.5971,2.05303 -11.0117,0 -20.7169,-2.98622 -9.7053,-3.17287 -16.9842,-9.33195 -7.0923,-6.15909 -11.385,-15.49104 -4.106,-9.51859 -4.106,-22.396682 0,-11.19834 6.1591,-21.463485 6.159,-10.451785 19.9703,-18.477262 13.8113,-8.025477 36.0214,-13.064731 22.21,-5.225892 54.4985,-5.972448 V 7.0496605 q 0,-22.0234025 -9.5185,-33.2217435 -9.5186,-11.384979 -27.8093,-11.384979 -12.3181,0 -20.7169,3.172863 -8.2121,2.986224 -14.3712,6.905643 -5.9724,3.73278 -10.4518,6.905643 -4.2927,2.986224 -8.5854,2.986224 -3.3595,0 -5.7858,-1.679751 -2.4263,-1.86639 -4.106,-4.479336 z"
           style="fill:#354485;fill-opacity:1;stroke-width:9.33191"
           id="path957" />
        <path
           d="M 1990.9914,127.99174 V -61.073577 h 19.9704 q 7.0922,0 8.772,6.905643 l 2.4263,19.410457 q 10.4518,-12.878092 23.5165,-21.090208 13.0648,-8.212116 30.2355,-8.212116 19.0372,0 30.7955,10.638423 11.9449,10.638423 17.1708,28.742407 4.106,-10.265145 10.4518,-17.730706 6.5323,-7.46556 14.5578,-12.318174 8.0255,-4.852614 16.9841,-7.092282 9.1454,-2.239668 18.4773,-2.239668 14.9311,0 26.5027,4.852614 11.7583,4.665975 19.7838,13.811286 8.2121,9.145312 12.5048,22.58332 4.2927,13.2513698 4.2927,30.4221585 V 127.99174 H 2214.025 V 7.6095775 q 0,-22.2100415 -9.7052,-33.5950215 -9.7052,-11.571618 -27.9959,-11.571618 -8.2121,0 -15.6776,2.986224 -7.279,2.799585 -12.8781,8.398755 -5.5992,5.59917 -8.9587,14.184565 -3.1729,8.398755 -3.1729,19.5970955 V 127.99174 h -33.4084 V 7.6095775 q 0,-22.7699585 -9.1453,-33.9682995 -9.1453,-11.19834 -26.6893,-11.19834 -12.3182,0 -22.77,6.719004 -10.4518,6.532365 -19.2238,17.917345 V 127.99174 Z"
           style="fill:#354485;fill-opacity:1;stroke-width:9.33191"
           id="path959" />
      </g>
      <g
         id="g1126"
         transform="matrix(0.80964436,0,0,0.80964436,467.24563,-42.798012)"
         style="fill:#ed1c24;fill-opacity:1">
        <path
           style="fill:#ed1c24;fill-opacity:1;stroke-width:0.392447"
           d="m 2543.2204,-187.17329 c -4.9179,-1.7579 -7.7522,-7.67286 -6.0837,-12.69623 2.2868,-6.88524 10.7701,-9.28381 16.2487,-4.5944 2.1183,1.81331 3.2458,4.01972 3.5029,6.85558 0.5473,6.03537 -3.9305,10.99906 -9.8832,10.9559 -1.3067,-0.0113 -3.0098,-0.24416 -3.7847,-0.52093 z"
           id="path1053" />
        <path
           style="fill:#ed1c24;fill-opacity:1;stroke-width:0.392447"
           d="m 2553.3412,-78.4824 c -2.6529,-0.7195 -4.9351,-2.5135 -6.3232,-4.97034 -1.0178,-1.80155 -1.1877,-2.50386 -1.1766,-4.86353 0.027,-5.82066 4.198,-10.04281 9.9476,-10.07029 5.8344,-0.0302 10.2211,4.28939 10.2211,10.05948 0,6.70945 -6.2687,11.5807 -12.6689,9.84468 z"
           id="path1051" />
        <path
           style="fill:#ed1c24;fill-opacity:1;stroke-width:0.392447"
           d="m 2571.1195,-3.97687 c -4.4248,-3.35599 -8.271,-6.32394 -8.5472,-6.59547 -0.4062,-0.399 0.2027,-1.54922 3.1905,-6.0246 11.396,-17.07039 17.856,-34.11908 20.9342,-55.24728 0.8776,-6.02366 0.993,-25.84827 0.1839,-31.59205 -2.2127,-15.70904 -5.734,-27.6954 -11.851,-40.34072 -3.2024,-6.62018 -5.7609,-11.12311 -9.1808,-16.15808 -1.0944,-1.61144 -2.1243,-3.14457 -2.2886,-3.40709 -0.2017,-0.3224 2.4399,-2.46554 8.1232,-6.59169 4.6321,-3.36295 8.6599,-6.20576 8.9507,-6.31733 0.3442,-0.1319 1.6375,1.47806 3.7074,4.61586 13.7791,20.88824 21.8435,43.4589 24.5076,68.59147 0.2871,2.70777 0.5201,9.30142 0.5201,14.71684 0,10.44174 -0.452,16.15174 -2.0034,25.30832 -3.1001,18.29745 -9.831,36.43586 -19.3706,52.19974 -2.6449,4.37061 -8.4505,12.96087 -8.7505,12.94749 -0.044,-10e-4 -3.7006,-2.74942 -8.1255,-6.10541 z"
           id="path1027" />
        <path
           style="fill:#ed1c24;fill-opacity:1;stroke-width:0.392447"
           d="m 2549.0012,25.03856 c -2.6197,-0.8047 -5.4033,-3.62128 -6.327,-6.40206 -1.3271,-3.99572 -0.189,-8.00448 3.0928,-10.89324 6.5669,-5.78038 16.7319,-0.97592 16.7149,7.90015 -0.01,4.1215 -3.1128,8.23831 -7.1081,9.42475 -2.5005,0.74256 -3.8792,0.73617 -6.3726,-0.0302 z"
           id="path967" />
        <path
           style="fill:#ed1c24;fill-opacity:1;stroke-width:0.392447"
           d="m 2450.2457,61.75376 c -63.3672,-3.66603 -118.1508,-47.51225 -135.5419,-108.48136 -4.4059,-15.44606 -5.9967,-28.24732 -5.6223,-45.24155 0.3758,-17.05727 2.6629,-29.92018 8.1447,-45.80629 9.5909,-27.79445 27.8624,-52.83401 51.5866,-70.69534 38.7896,-29.20369 89.8747,-37.84384 136.1793,-23.03241 6.0658,1.9403 14.3475,5.22683 14.5588,5.77769 0.1361,0.3549 -7.3646,17.98746 -8.2855,19.4775 -0.1053,0.1697 -1.6481,-0.30501 -3.4286,-1.05668 -13.1113,-5.53444 -32.4653,-9.54898 -46.0353,-9.54898 h -2.5295 v 10.73189 10.7319 l 5.1119,0.25889 c 15.3244,0.7756 29.5041,4.54383 43.1857,11.47646 10.4988,5.31988 18.2933,11.01169 27.0772,19.77264 9.3042,9.2798 15.0716,17.38594 20.8083,29.24621 2.7232,5.63014 6.6381,15.83509 6.6381,17.30351 0,0.48083 -1.5848,0.55007 -10.604,0.4611 l -10.6041,-0.10431 -1.6969,-4.16429 c -13.5692,-33.29854 -47.179,-54.99114 -83.0558,-53.60602 -32.1981,1.24313 -60.7444,19.84207 -74.7751,48.71857 -9.7971,20.16347 -11.3325,43.63763 -4.2499,64.97571 6.2918,18.95531 19.4868,35.70304 36.3853,46.1817 34.4196,21.34334 78.7408,16.06927 107.2989,-12.76822 7.8075,-7.8838 14.8939,-18.70995 18.7117,-28.5865 l 1.3349,-3.45339 10.6276,-0.10507 c 8.8714,-0.0877 10.6275,-0.0189 10.6275,0.44232 0,1.03952 -3.4792,10.66741 -5.4422,15.06002 -6.5221,14.59464 -17.6248,28.9477 -30.4256,39.33305 -7.8338,6.35558 -20.5655,13.55875 -30.2048,17.08879 -10.2699,3.76097 -24.5352,6.47369 -34.0432,6.47369 h -2.7055 v 10.85325 10.8533 l 5.6516,-0.25701 c 20.3565,-0.925 41.4229,-7.01046 57.8996,-16.72551 1.1545,-0.68069 2.225,-1.095 2.379,-0.92058 1.0969,1.24248 10.9636,18.35086 10.7149,18.57899 -0.706,0.64747 -10.036,5.5251 -14.246,7.44763 -17.2643,7.88398 -34.966,12.19605 -54.7464,13.33592 -7.355,0.42357 -8.9254,0.42115 -16.679,-0.0302 z"
           id="path963" />
      </g>
    </g>
  </g>
</svg>
