<?xml version="1.0" encoding="UTF-8" standalone="no"?>
<svg
   xmlns:dc="http://purl.org/dc/elements/1.1/"
   xmlns:cc="http://creativecommons.org/ns#"
   xmlns:rdf="http://www.w3.org/1999/02/22-rdf-syntax-ns#"
   xmlns:svg="http://www.w3.org/2000/svg"
   xmlns="http://www.w3.org/2000/svg"
   xmlns:sodipodi="http://sodipodi.sourceforge.net/DTD/sodipodi-0.dtd"
   xmlns:inkscape="http://www.inkscape.org/namespaces/inkscape"
   version="1.1"
   width="1000.5777"
   height="304.47678"
   id="svg825"
   viewBox="0 0 1000.5777 304.47678"
   sodipodi:docname="BukitAsam.svg"
   inkscape:version="1.0.2 (e86c870879, 2021-01-15, custom)">
  <metadata
     id="metadata831">
    <rdf:RDF>
      <cc:Work
         rdf:about="">
        <dc:format>image/svg+xml</dc:format>
        <dc:type
           rdf:resource="http://purl.org/dc/dcmitype/StillImage" />
        <dc:title></dc:title>
      </cc:Work>
    </rdf:RDF>
  </metadata>
  <defs
     id="defs829" />
  <sodipodi:namedview
     pagecolor="#ffffff"
     bordercolor="#666666"
     borderopacity="1"
     objecttolerance="10"
     gridtolerance="10"
     guidetolerance="10"
     inkscape:pageopacity="0"
     inkscape:pageshadow="2"
     inkscape:window-width="1366"
     inkscape:window-height="715"
     id="namedview827"
     showgrid="false"
     inkscape:zoom="0.45566486"
     inkscape:cx="277.85934"
     inkscape:cy="321.05585"
     inkscape:window-x="-8"
     inkscape:window-y="-8"
     inkscape:window-maximized="1"
     inkscape:current-layer="svg825" />
  <g
     id="Layer1000"
     transform="matrix(0.90834059,0,0,0.90834059,1621.5471,16.919079)">
    <g
       aria-label="Bukit Asam"
       id="text868"
       style="font-style:normal;font-variant:normal;font-weight:normal;font-stretch:normal;font-size:161.483px;line-height:1.25;font-family:'Univers LT Std';-inkscape-font-specification:'Univers LT Std';letter-spacing:-6.25463px;fill:#27156e;fill-opacity:1;stroke:none;stroke-width:4.03705">
      <path
         d="m -1427.9265,313.53201 h 43.6004 c 4.5215,0 20.3469,0 29.3899,-4.683 9.0431,-4.52153 17.1172,-13.72606 17.1172,-27.45211 0,-12.27271 -6.9438,-25.19135 -24.7069,-28.42101 v -0.32297 c 6.7823,-1.77631 12.4342,-6.94377 13.2416,-7.91267 5.9749,-5.49042 6.7823,-13.08012 6.7823,-17.44016 0,-6.78229 -2.4222,-18.0861 -13.0801,-24.86838 -8.8816,-5.49042 -21.9617,-5.49042 -28.744,-5.49042 h -43.6004 z m 23.8995,-98.66611 h 16.9557 c 8.2356,0 20.5083,0 20.5083,14.53347 0,15.01792 -12.9186,15.01792 -20.0239,15.01792 h -17.4401 z m 0,47.63748 h 14.372 c 11.9497,0 26.9676,0 26.9676,16.63275 0,15.66385 -12.9186,15.66385 -24.3839,15.66385 h -16.9557 z"
         style="font-style:normal;font-variant:normal;font-weight:bold;font-stretch:normal;font-family:'Univers LT Std';-inkscape-font-specification:'Univers LT Std Bold';fill:#27156e;fill-opacity:1;stroke-width:4.03705"
         id="path890" />
      <path
         d="m -1327.7639,231.9831 v 50.70566 c 0,4.03707 0,15.34088 5.329,21.96169 4.5215,5.97487 13.5645,10.98084 24.5454,10.98084 15.5024,0 21.6387,-9.36601 24.061,-12.91864 l 0.8074,10.81936 h 23.2535 c -0.3229,-2.26076 -0.4844,-3.71411 -0.6459,-5.97487 0,-2.09928 -0.1615,-4.19856 -0.4845,-21.8002 V 231.9831 h -24.5454 v 41.17816 c 0,13.88754 0,25.35283 -15.3409,25.35283 -12.7571,0 -12.7571,-10.81936 -12.7571,-17.92461 V 231.9831 Z"
         style="font-style:normal;font-variant:normal;font-weight:bold;font-stretch:normal;font-family:'Univers LT Std';-inkscape-font-specification:'Univers LT Std Bold';fill:#27156e;fill-opacity:1;stroke-width:4.03705"
         id="path892" />
      <path
         d="m -1234.2223,313.53201 h 23.738 v -44.40782 l 25.1914,44.40782 h 28.2595 l -29.7129,-46.5071 27.9366,-35.52626 h -26.9677 l -24.7069,34.07291 V 196.7798 h -23.738 z"
         style="font-style:normal;font-variant:normal;font-weight:bold;font-stretch:normal;font-family:'Univers LT Std';-inkscape-font-specification:'Univers LT Std Bold';fill:#27156e;fill-opacity:1;stroke-width:4.03705"
         id="path894" />
      <path
         d="m -1151.8228,217.77259 h 25.5143 v -20.8313 h -25.5143 z m 0.8074,95.75942 h 23.8995 v -81.7104 h -23.8995 z"
         style="font-style:normal;font-variant:normal;font-weight:bold;font-stretch:normal;font-family:'Univers LT Std';-inkscape-font-specification:'Univers LT Std Bold';fill:#27156e;fill-opacity:1;stroke-width:4.03705"
         id="path896" />
      <path
         d="m -1064.4173,296.73778 c -2.9067,0.32297 -4.5215,0.48445 -8.0741,0.48445 -10.6579,0 -10.6579,-4.68301 -10.8194,-12.11123 v -36.81812 h 19.378 v -15.82533 h -19.378 v -24.7069 l -23.738,8.72008 v 15.98682 h -15.6639 v 15.82533 h 15.6639 v 44.73079 c 0,6.78229 0,21.96169 24.061,21.96169 3.8755,0 10.8193,-0.48445 18.5705,-2.58373 z"
         style="font-style:normal;font-variant:normal;font-weight:bold;font-stretch:normal;font-family:'Univers LT Std';-inkscape-font-specification:'Univers LT Std Bold';fill:#27156e;fill-opacity:1;stroke-width:4.03705"
         id="path898" />
      <path
         d="m -1029.7377,272.35385 25.6758,-65.72358 25.19132,65.72358 z m -15.6639,41.17816 12.2727,-31.48918 h 57.97243 l 12.43419,31.48918 h 11.46529 L -997.7641,196.94129 h -12.2727 l -46.1841,116.59072 z"
         style="font-style:normal;font-variant:normal;font-weight:300;font-stretch:normal;font-family:'Univers LT Std';-inkscape-font-specification:'Univers LT Std Light';stroke-width:4.03705"
         id="path900" />
      <path
         d="m -948.46881,252.65292 c 0,15.01792 12.91864,18.73203 25.67579,21.80021 12.91864,2.90669 25.6758,4.84449 25.6758,16.47126 0,11.30381 -10.81936,16.1483 -21.15427,16.1483 -10.98085,0 -21.63872,-3.55262 -22.44614,-15.66385 h -10.49639 c 0.32296,17.92461 16.47126,24.54542 30.52028,24.54542 17.1172,0 34.07292,-8.23564 34.07292,-26.48321 0,-8.72009 -5.32894,-15.98682 -13.72606,-18.89352 -21.96169,-7.75118 -37.62554,-6.6208 -37.62554,-18.57054 0,-9.5275 9.20453,-13.08012 18.24758,-13.08012 10.01195,0 19.055,3.39114 20.02389,13.56457 h 10.4964 c -1.29187,-17.1172 -14.21051,-22.44614 -29.55139,-22.44614 -14.21051,0 -29.71287,5.81339 -29.71287,22.60762 z"
         style="font-style:normal;font-variant:normal;font-weight:300;font-stretch:normal;font-family:'Univers LT Std';-inkscape-font-specification:'Univers LT Std Light';stroke-width:4.03705"
         id="path902" />
      <path
         d="m -867.84592,290.92439 c 0,-20.34686 28.74398,-17.76313 42.47003,-18.24758 0.9689,16.95572 -3.06818,34.39588 -24.22245,34.39588 -9.85046,0 -18.24758,-5.16745 -18.24758,-16.1483 z m 42.47003,-27.12914 c -11.78826,0.64593 -25.83728,-0.9689 -36.65664,3.71411 -9.68898,4.03707 -16.30978,12.43419 -16.30978,23.41503 0,15.82534 11.94974,25.02987 26.96766,25.02987 10.98084,0 21.8002,-6.45932 25.35283,-13.24161 l 0.48445,-1.13038 h 0.32296 l 0.32297,11.94974 h 10.01195 c -0.32297,-5.49042 -0.9689,-11.94974 -0.80742,-18.24758 v -38.43295 c 0.32297,-18.57055 -10.81936,-26.80618 -28.74397,-26.80618 -15.50237,0 -27.93656,6.29784 -30.35881,22.93059 h 10.33492 c 1.29186,-10.98085 9.68898,-14.04902 19.8624,-14.04902 11.4653,0 18.24758,4.19855 19.21648,17.44016 z"
         style="font-style:normal;font-variant:normal;font-weight:300;font-stretch:normal;font-family:'Univers LT Std';-inkscape-font-specification:'Univers LT Std Light';stroke-width:4.03705"
         id="path904" />
      <path
         d="m -788.12168,232.36733 h -9.59771 c 0.30961,5.26325 0.77402,11.45532 0.77402,17.49259 v 60.21783 h 9.28809 v -44.73767 c 0,-13.93215 6.96607,-26.78068 22.29144,-26.78068 12.69374,0 20.43382,7.89487 20.43382,21.36262 v 50.15573 h 9.28809 v -44.73767 c 0,-13.93215 6.96607,-26.78068 22.29144,-26.78068 12.69374,0 20.43382,7.89487 20.43382,21.36262 v 50.15573 h 9.2881 v -48.60772 c 0,-8.97848 -2.01243,-31.42473 -27.3999,-31.42473 -12.07453,0 -21.05301,7.89489 -26.78067,17.02818 -3.40564,-10.21691 -13.00335,-17.02818 -25.23268,-17.02818 -10.06211,0 -18.8858,4.48925 -24.30386,14.08695 l -0.3096,-0.3096 z"
         style="font-style:normal;font-variant:normal;font-weight:300;font-stretch:normal;font-family:'Univers LT Std';-inkscape-font-specification:'Univers LT Std Light';stroke-width:3.87002"
         id="path906" />
    </g>
    <g
       id="Layer1001"
       transform="translate(-1824.9324,-276.22276)">
      <g
         id="Layer1002">
        <path
           d="m 39.7572,385.7536 c 0,27.1933 5.6942,51.2537 16.2986,69.1396 6.487,10.9413 18.47,26.3355 30.4278,31.6485 37.9829,16.8761 72.9142,-26.0296 109.4654,-26.0296 38.0583,0 76.4938,50.7062 121.0125,17.5523 14.9326,-11.1204 28.4092,-35.0114 35.3794,-52.7289 9.5481,-24.2692 9.6656,-55.503 -1.9749,-78.5237 -1.5353,-3.0362 -2.7642,-5.6346 -4.2226,-8.4597 -2.4383,-4.723 -7.0917,-10.7099 -10.3983,-14.9662 -1.4195,-1.8268 -1.5985,-1.9596 -3.136,-3.5388 -1.5246,-1.5662 -1.6412,-2.1178 -2.9982,-3.6768 -6.1041,-7.0133 -20.4313,-16.6374 -29.3116,-21.4171 -25.2043,-13.5667 -60.0059,-14.8385 -84.3288,3.5567 -3.6009,2.7235 -7.4851,5.5784 -10.0092,9.3479 21.7456,1.8095 38.3984,16.5977 47.6059,33.1599 2.0569,3.6998 3.6284,7.3411 5.3288,11.3584 2.4904,5.8836 5.225,19.7193 4.7159,27.2198 -1.6253,23.9523 -9.0188,38.9974 -28.0831,53.28 -42.6303,31.9375 -100.3211,-3.1568 -100.3211,-50.2597 0,-24.4212 19.6584,-60.6597 32.1607,-81.3117 2.3903,-3.9482 24.5989,-40.7429 25.2431,-43.5081 H 86.4535 c -2.5572,0.192 -2.8383,0.8777 -4.3771,2.9374 -10.2133,13.6702 -8.6329,11.042 -17.5927,26.4616 -14.341,24.6804 -24.7265,68.9253 -24.7265,98.7582 z"
           style="fill:#e49c27;fill-rule:evenodd"
           id="path816" />
        <path
           d="m 40.6079,592.7975 h 317.856 V 471.2487 h -0.5858 c -7.8446,14.4028 -17.9317,28.6197 -28.7063,36.741 -49.1479,37.0466 -91.5799,-19.6132 -133.5958,-19.6132 -40.3518,0 -78.9156,47.9436 -120.848,29.0861 -13.2011,-5.937 -26.4304,-23.1387 -33.5916,-35.3648 -0.1775,-0.303 -0.3535,-0.6076 -0.5285,-0.9137 z"
           style="fill:#972928;fill-rule:evenodd"
           id="path818" />
      </g>
    </g>
  </g>
</svg>
